# Blender v2.79 (sub 0) OBJ File: 'navigation_arrow.blend'
# www.blender.org
o Cube
v 0.083217 -0.150000 -1.327595
v 0.083217 -0.150000 1.327595
v -2.007053 -0.150000 0.500000
v -2.007052 -0.150000 -0.500000
v 0.083218 0.150000 -1.327594
v 0.083216 0.150000 1.327595
v -2.007053 0.150000 0.500000
v -2.007053 0.150000 -0.500000
v 0.000000 -0.150000 -0.500000
v 0.000000 -0.150000 0.500000
v 0.000000 0.150000 -0.500000
v -0.000001 0.150000 0.500000
v 1.217062 -0.150000 0.000000
v 1.217062 0.150000 0.000001
v -0.000000 0.150000 0.000000
v 0.000000 -0.150000 -0.000000
vt 0.806430 0.386942
vt 0.500000 0.135768
vt 0.638397 0.000000
vt 0.500000 0.135768
vt 0.262769 0.454826
vt 0.193571 0.386942
vt 0.163801 0.817452
vt 0.218402 0.580416
vt 0.218402 0.817452
vt 0.000000 1.000000
vt 0.054600 0.580416
vt 0.054600 1.000000
vt 0.218402 0.789471
vt 0.273002 0.580416
vt 0.273002 0.789471
vt 0.163801 0.852910
vt 0.109201 0.580416
vt 0.163801 0.580416
vt 0.382203 0.753428
vt 0.327603 0.580416
vt 0.382203 0.580416
vt 0.273002 0.580416
vt 0.327603 0.753429
vt 0.273002 0.753429
vt 0.049715 0.580416
vt 0.367469 0.580416
vt 0.950285 0.580416
vt 0.737231 0.454826
vt 0.875628 0.319057
vt 1.000000 0.219925
vt 0.124372 0.319057
vt 0.000000 0.219925
vt 0.054600 0.945401
vt 0.109201 0.580416
vt 0.109201 0.945401
vt 0.361604 0.000000
vt 0.163801 0.580416
vt 0.000000 0.580416
vt 0.218402 0.580416
vt 0.109201 0.852910
vt 0.327603 0.753428
vt 0.327603 0.580416
vt 0.632531 0.580416
vt 0.054601 0.580416
vn 0.0000 -1.0000 0.0000
vn 0.0000 1.0000 -0.0000
vn 0.7604 -0.0000 0.6494
vn 0.0000 -0.0000 1.0000
vn -1.0000 -0.0000 -0.0000
vn 0.0000 0.0000 -1.0000
vn -0.9950 0.0000 -0.1000
vn -0.9950 -0.0000 0.1000
vn 0.7604 -0.0000 -0.6494
s off
f 16/1/1 3/2/1 4/3/1
f 7/4/2 12/5/2 15/6/2
f 14/7/3 2/8/3 13/9/3
f 12/10/4 3/11/4 10/12/4
f 7/13/5 4/14/5 3/15/5
f 11/16/6 4/17/6 8/18/6
f 5/19/7 9/20/7 11/21/7
f 2/22/8 12/23/8 10/24/8
f 14/25/2 12/5/2 6/26/2
f 13/27/1 10/28/1 16/1/1
f 13/27/1 9/29/1 1/30/1
f 11/31/2 14/25/2 5/32/2
f 5/33/9 13/34/9 1/35/9
f 4/3/1 9/29/1 16/1/1
f 16/1/1 10/28/1 3/2/1
f 15/6/2 11/31/2 8/36/2
f 8/36/2 7/4/2 15/6/2
f 14/7/3 6/37/3 2/8/3
f 12/10/4 7/38/4 3/11/4
f 7/13/5 8/39/5 4/14/5
f 11/16/6 9/40/6 4/17/6
f 5/19/7 1/41/7 9/20/7
f 2/22/8 6/42/8 12/23/8
f 14/25/2 15/6/2 12/5/2
f 13/27/1 2/43/1 10/28/1
f 13/27/1 16/1/1 9/29/1
f 11/31/2 15/6/2 14/25/2
f 5/33/9 14/44/9 13/34/9
