# Blender v2.79 (sub 0) OBJ File: 'navigation_arrow.blend'
# www.blender.org
v 0.083217 -0.150000 -1.327595
v 0.083217 -0.150000 1.327595
v -2.007053 -0.150000 0.500000
v -2.007052 -0.150000 -0.500000
v 0.083218 0.150000 -1.327594
v 0.083216 0.150000 1.327595
v -2.007053 0.150000 0.500000
v -2.007053 0.150000 -0.500000
v 0.000000 -0.150000 -0.500000
v 0.000000 -0.150000 0.500000
v 0.000000 0.150000 -0.500000
v -0.000001 0.150000 0.500000
v 1.217062 -0.150000 0.000000
v 1.217062 0.150000 0.000001
v -0.000000 0.150000 0.000000
v 0.000000 -0.150000 -0.000000
vt 0.875628 0.319057
vt 0.806430 0.386942
vt 0.737231 0.454826
vt 0.500000 0.135768
vt 0.638397 0.000000
vt 0.124372 0.319057
vt 0.361604 0.000000
vt 0.500000 0.135768
vt 0.262769 0.454826
vt 0.193571 0.386942
vt 0.218402 0.817452
vt 0.163801 0.817452
vt 0.163801 0.580416
vt 0.218402 0.580416
vt 0.054600 1.000000
vt 0.000000 1.000000
vt 0.000000 0.580416
vt 0.054600 0.580416
vt 0.273002 0.789471
vt 0.218402 0.789471
vt 0.218402 0.580416
vt 0.273002 0.580416
vt 0.163801 0.852910
vt 0.109201 0.852910
vt 0.109201 0.580416
vt 0.163801 0.580416
vt 0.382203 0.753428
vt 0.327603 0.753428
vt 0.327603 0.580416
vt 0.382203 0.580416
vt 0.273002 0.580416
vt 0.327603 0.580416
vt 0.327603 0.753429
vt 0.273002 0.753429
vt 0.049715 0.580416
vt 0.367469 0.580416
vt 0.950285 0.580416
vt 0.632531 0.580416
vt 1.000000 0.219925
vt 0.000000 0.219925
vt 0.109201 0.945401
vt 0.054600 0.945401
vt 0.054601 0.580416
vt 0.109201 0.580416
vn 0.0000 -1.0000 0.0000
vn 0.0000 1.0000 -0.0000
vn 0.7604 0.0000 0.6494
vn -0.0000 -0.0000 1.0000
vn -1.0000 -0.0000 -0.0000
vn 0.0000 0.0000 -1.0000
vn -0.9950 0.0000 -0.1000
vn -0.9950 -0.0000 0.1000
vn 0.7604 0.0000 -0.6494
f 9/1/1 16/2/1 10/3/1 3/4/1 4/5/1
f 11/6/2 8/7/2 7/8/2 12/9/2 15/10/2
f 13/11/3 14/12/3 6/13/3 2/14/3
f 10/15/4 12/16/4 7/17/4 3/18/4
f 3/19/5 7/20/5 8/21/5 4/22/5
f 11/23/6 9/24/6 4/25/6 8/26/6
f 5/27/7 1/28/7 9/29/7 11/30/7
f 2/31/8 6/32/8 12/33/8 10/34/8
f 14/35/2 15/10/2 12/9/2 6/36/2
f 13/37/1 2/38/1 10/3/1 16/2/1
f 1/39/1 13/37/1 16/2/1 9/1/1
f 5/40/2 11/6/2 15/10/2 14/35/2
f 1/41/9 5/42/9 14/43/9 13/44/9
