# Blender v2.79 (sub 0) OBJ File: 'SupplyRing.blend'
# www.blender.org
v 1.250000 0.000000 0.000000
v 1.191511 0.160697 0.000000
v 1.043412 0.246202 0.000000
v 0.875000 0.216506 0.000000
v 0.765077 0.085505 0.000000
v 0.765077 -0.085505 0.000000
v 0.875000 -0.216506 0.000000
v 1.043412 -0.246202 0.000000
v 1.191511 -0.160697 0.000000
v 0.957555 0.000000 -0.803485
v 0.912750 0.160697 -0.765889
v 0.799300 0.246202 -0.670692
v 0.670289 0.216506 -0.562439
v 0.586083 0.085505 -0.491782
v 0.586083 -0.085505 -0.491782
v 0.670289 -0.216506 -0.562439
v 0.799300 -0.246202 -0.670692
v 0.912750 -0.160697 -0.765889
v 0.217060 0.000000 -1.231010
v 0.206904 0.160697 -1.173409
v 0.181187 0.246202 -1.027560
v 0.151942 0.216506 -0.861707
v 0.132854 0.085505 -0.753454
v 0.132854 -0.085505 -0.753454
v 0.151942 -0.216506 -0.861707
v 0.181187 -0.246202 -1.027560
v 0.206904 -0.160697 -1.173409
v -0.625000 0.000000 -1.082532
v -0.595755 0.160697 -1.031879
v -0.521706 0.246202 -0.903621
v -0.437500 0.216506 -0.757772
v -0.382538 0.085505 -0.662576
v -0.382538 -0.085505 -0.662576
v -0.437500 -0.216506 -0.757772
v -0.521706 -0.246202 -0.903621
v -0.595755 -0.160697 -1.031879
v -1.174616 0.000000 -0.427526
v -1.119654 0.160697 -0.407521
v -0.980487 0.246202 -0.356868
v -0.822231 0.216506 -0.299268
v -0.718937 0.085505 -0.261672
v -0.718937 -0.085505 -0.261672
v -0.822231 -0.216506 -0.299268
v -0.980487 -0.246202 -0.356868
v -1.119654 -0.160697 -0.407521
v -1.174616 0.000000 0.427525
v -1.119654 0.160697 0.407521
v -0.980487 0.246202 0.356868
v -0.822231 0.216506 0.299268
v -0.718937 0.085505 0.261672
v -0.718937 -0.085505 0.261672
v -0.822231 -0.216506 0.299268
v -0.980487 -0.246202 0.356868
v -1.119654 -0.160697 0.407521
v -0.625000 0.000000 1.082532
v -0.595755 0.160697 1.031879
v -0.521706 0.246202 0.903621
v -0.437500 0.216506 0.757772
v -0.382538 0.085505 0.662576
v -0.382538 -0.085505 0.662576
v -0.437500 -0.216506 0.757772
v -0.521706 -0.246202 0.903621
v -0.595755 -0.160697 1.031879
v 0.217060 0.000000 1.231010
v 0.206904 0.160697 1.173409
v 0.181187 0.246202 1.027560
v 0.151942 0.216506 0.861707
v 0.132854 0.085505 0.753454
v 0.132854 -0.085505 0.753454
v 0.151942 -0.216506 0.861707
v 0.181187 -0.246202 1.027560
v 0.206904 -0.160697 1.173409
v 0.957555 0.000000 0.803485
v 0.912750 0.160697 0.765889
v 0.799300 0.246202 0.670692
v 0.670289 0.216506 0.562439
v 0.586083 0.085505 0.491782
v 0.586083 -0.085505 0.491782
v 0.670289 -0.216506 0.562439
v 0.799300 -0.246202 0.670692
v 0.912750 -0.160697 0.765889
vt 0.666667 0.555556
vt 0.555556 0.666667
vt 0.555556 0.555556
vt 0.666667 0.666667
vt 0.555556 0.777778
vt 0.666667 0.888889
vt 0.555556 0.888889
vt 0.555556 1.000000
vt 0.666667 0.000000
vt 0.555556 0.111111
vt 0.555556 0.000000
vt 0.666667 0.222222
vt 0.555556 0.222222
vt 0.666667 0.333333
vt 0.555556 0.333333
vt 0.666667 0.444444
vt 0.555556 0.444444
vt 0.555556 0.555556
vt 0.666667 0.444444
vt 0.666667 0.555556
vt 0.777778 0.666667
vt 0.666667 0.777778
vt 0.777778 0.777778
vt 0.777778 0.888889
vt 0.666667 1.000000
vt 0.777778 0.000000
vt 0.666667 0.111111
vt 0.777778 0.222222
vt 0.777778 0.333333
vt 0.777778 0.444444
vt 0.777778 0.555556
vt 0.888889 0.666667
vt 0.888889 0.777778
vt 0.888889 0.888889
vt 0.777778 1.000000
vt 0.888889 0.000000
vt 0.777778 0.111111
vt 0.888889 0.222222
vt 0.888889 0.444444
vt 1.000000 0.555556
vt 0.888889 0.555556
vt 1.000000 0.666667
vt 1.000000 0.777778
vt 1.000000 0.888889
vt 0.888889 1.000000
vt 1.000000 0.000000
vt 0.888889 0.111111
vt 1.000000 0.111111
vt 1.000000 0.333333
vt 0.888889 0.333333
vt 1.000000 0.444444
vt 0.111111 0.555556
vt 0.000000 0.666667
vt 0.000000 0.555556
vt 0.111111 0.666667
vt 0.000000 0.777778
vt 0.111111 0.777778
vt 0.000000 0.888889
vt 0.111111 1.000000
vt 0.000000 1.000000
vt 0.111111 0.000000
vt 0.000000 0.111111
vt 0.000000 0.000000
vt 0.111111 0.111111
vt 0.000000 0.222222
vt 0.111111 0.222222
vt 0.000000 0.333333
vt 0.111111 0.333333
vt 0.000000 0.444444
vt 0.111111 0.444444
vt 0.222222 0.666667
vt 0.222222 0.777778
vt 0.111111 0.888889
vt 0.222222 0.888889
vt 0.222222 0.000000
vt 0.222222 0.111111
vt 0.222222 0.333333
vt 0.222222 0.444444
vt 0.222222 0.555556
vt 0.333333 0.666667
vt 0.333333 0.777778
vt 0.333333 0.888889
vt 0.222222 1.000000
vt 0.333333 0.000000
vt 0.333333 0.111111
vt 0.222222 0.222222
vt 0.333333 0.333333
vt 0.333333 0.444444
vt 0.444444 0.555556
vt 0.333333 0.555556
vt 0.444444 0.666667
vt 0.444444 0.777778
vt 0.444444 1.000000
vt 0.333333 1.000000
vt 0.444444 0.000000
vt 0.444444 0.111111
vt 0.333333 0.222222
vt 0.444444 0.222222
vt 0.444444 0.333333
vt 0.444444 0.444444
vt 0.444444 0.888889
vt 0.555556 0.444444
vt 1.000000 1.000000
vt 1.000000 0.222222
vn 0.8891 0.3236 -0.3236
vn 0.4919 0.8520 -0.1790
vn -0.1733 0.9828 0.0631
vn -0.7379 0.6192 0.2686
vn -0.9397 0.0000 0.3420
vn -0.7379 -0.6192 0.2686
vn -0.1733 -0.9828 0.0631
vn 0.4919 -0.8520 -0.1790
vn 0.8891 -0.3236 -0.3236
vn 0.4731 0.3236 -0.8194
vn 0.2617 0.8520 -0.4534
vn -0.0922 0.9828 0.1597
vn -0.3926 0.6192 0.6801
vn -0.5000 0.0000 0.8660
vn -0.3926 -0.6192 0.6801
vn -0.0922 -0.9828 0.1597
vn 0.2617 -0.8520 -0.4534
vn 0.4731 -0.3236 -0.8194
vn -0.1643 0.3236 -0.9318
vn -0.0909 0.8520 -0.5155
vn 0.0320 0.9828 0.1816
vn 0.1364 0.6192 0.7733
vn 0.1736 0.0000 0.9848
vn 0.1364 -0.6192 0.7733
vn 0.0320 -0.9828 0.1816
vn -0.0909 -0.8520 -0.5155
vn -0.1643 -0.3236 -0.9318
vn -0.7248 0.3236 -0.6082
vn -0.4010 0.8520 -0.3365
vn 0.1413 0.9828 0.1185
vn 0.6015 0.6192 0.5048
vn 0.7660 0.0000 0.6428
vn 0.6015 -0.6192 0.5048
vn 0.1413 -0.9828 0.1185
vn -0.4010 -0.8520 -0.3365
vn -0.7248 -0.3236 -0.6082
vn -0.9462 0.3236 -0.0000
vn -0.5235 0.8520 -0.0000
vn 0.1844 0.9828 0.0000
vn 0.7853 0.6192 0.0000
vn 1.0000 0.0000 0.0000
vn 0.7853 -0.6192 0.0000
vn 0.1844 -0.9828 0.0000
vn -0.5235 -0.8520 -0.0000
vn -0.9462 -0.3236 -0.0000
vn -0.7248 0.3236 0.6082
vn -0.4010 0.8520 0.3365
vn 0.1413 0.9828 -0.1185
vn 0.6015 0.6192 -0.5048
vn 0.7660 0.0000 -0.6428
vn 0.6015 -0.6192 -0.5048
vn 0.1413 -0.9828 -0.1185
vn -0.4010 -0.8520 0.3365
vn -0.7248 -0.3236 0.6082
vn -0.1643 0.3236 0.9318
vn -0.0909 0.8520 0.5155
vn 0.0320 0.9828 -0.1816
vn 0.1364 0.6192 -0.7733
vn 0.1736 0.0000 -0.9848
vn 0.1364 -0.6192 -0.7733
vn 0.0320 -0.9828 -0.1816
vn -0.0909 -0.8520 0.5155
vn -0.1643 -0.3236 0.9318
vn 0.4731 0.3236 0.8194
vn 0.2617 0.8520 0.4534
vn -0.0922 0.9828 -0.1597
vn -0.3926 0.6192 -0.6801
vn -0.5000 0.0000 -0.8660
vn -0.3926 -0.6192 -0.6801
vn -0.0922 -0.9828 -0.1597
vn 0.2617 -0.8520 0.4534
vn 0.4731 -0.3236 0.8194
vn 0.8891 0.3236 0.3236
vn 0.4919 0.8520 0.1790
vn -0.1733 0.9828 -0.0631
vn -0.7379 0.6192 -0.2686
vn -0.9397 0.0000 -0.3420
vn -0.7379 -0.6192 -0.2686
vn -0.1733 -0.9828 -0.0631
vn 0.4919 -0.8520 0.1790
vn 0.8891 -0.3236 0.3236
s off
f 10/1/1 2/2/1 1/3/1
f 11/4/2 3/5/2 2/2/2
f 3/5/3 13/6/3 4/7/3
f 13/6/4 5/8/4 4/7/4
f 14/9/5 6/10/5 5/11/5
f 6/10/6 16/12/6 7/13/6
f 7/13/7 17/14/7 8/15/7
f 8/15/8 18/16/8 9/17/8
f 9/18/9 10/19/9 1/20/9
f 10/1/10 20/21/10 11/4/10
f 20/21/11 12/22/11 11/4/11
f 21/23/12 13/6/12 12/22/12
f 22/24/13 14/25/13 13/6/13
f 23/26/14 15/27/14 14/9/14
f 15/27/15 25/28/15 16/12/15
f 25/28/16 17/14/16 16/12/16
f 26/29/17 18/16/17 17/14/17
f 27/30/18 10/1/18 18/16/18
f 19/31/19 29/32/19 20/21/19
f 29/32/20 21/23/20 20/21/20
f 30/33/21 22/24/21 21/23/21
f 31/34/22 23/35/22 22/24/22
f 32/36/23 24/37/23 23/26/23
f 24/37/24 34/38/24 25/28/24
f 34/38/25 26/29/25 25/28/25
f 26/29/26 36/39/26 27/30/26
f 36/39/27 19/31/27 27/30/27
f 37/40/28 29/32/28 28/41/28
f 38/42/29 30/33/29 29/32/29
f 39/43/30 31/34/30 30/33/30
f 40/44/31 32/45/31 31/34/31
f 41/46/32 33/47/32 32/36/32
f 42/48/33 34/38/33 33/47/33
f 34/38/34 44/49/34 35/50/34
f 44/49/35 36/39/35 35/50/35
f 45/51/36 28/41/36 36/39/36
f 46/52/37 38/53/37 37/54/37
f 47/55/38 39/56/38 38/53/38
f 48/57/39 40/58/39 39/56/39
f 40/58/40 50/59/40 41/60/40
f 50/61/41 42/62/41 41/63/41
f 51/64/42 43/65/42 42/62/42
f 52/66/43 44/67/43 43/65/43
f 53/68/44 45/69/44 44/67/44
f 54/70/45 37/54/45 45/69/45
f 46/52/46 56/71/46 47/55/46
f 56/71/47 48/57/47 47/55/47
f 57/72/48 49/73/48 48/57/48
f 58/74/49 50/59/49 49/73/49
f 59/75/50 51/64/50 50/61/50
f 60/76/51 52/66/51 51/64/51
f 52/66/52 62/77/52 53/68/52
f 62/77/53 54/70/53 53/68/53
f 63/78/54 46/52/54 54/70/54
f 55/79/55 65/80/55 56/71/55
f 56/71/56 66/81/56 57/72/56
f 57/72/57 67/82/57 58/74/57
f 67/82/58 59/83/58 58/74/58
f 68/84/59 60/76/59 59/75/59
f 69/85/60 61/86/60 60/76/60
f 61/86/61 71/87/61 62/77/61
f 71/87/62 63/78/62 62/77/62
f 72/88/63 55/79/63 63/78/63
f 73/89/64 65/80/64 64/90/64
f 74/91/65 66/81/65 65/80/65
f 75/92/66 67/82/66 66/81/66
f 67/82/67 77/93/67 68/94/67
f 77/95/68 69/85/68 68/84/68
f 78/96/69 70/97/69 69/85/69
f 79/98/70 71/87/70 70/97/70
f 80/99/71 72/88/71 71/87/71
f 81/100/72 64/90/72 72/88/72
f 1/3/73 74/91/73 73/89/73
f 2/2/74 75/92/74 74/91/74
f 3/5/75 76/101/75 75/92/75
f 4/7/76 77/93/76 76/101/76
f 5/11/77 78/96/77 77/95/77
f 6/10/78 79/98/78 78/96/78
f 7/13/79 80/99/79 79/98/79
f 8/15/80 81/100/80 80/99/80
f 9/17/81 73/89/81 81/100/81
f 10/1/1 11/4/1 2/2/1
f 11/4/2 12/22/2 3/5/2
f 3/5/3 12/22/3 13/6/3
f 13/6/4 14/25/4 5/8/4
f 14/9/5 15/27/5 6/10/5
f 6/10/6 15/27/6 16/12/6
f 7/13/7 16/12/7 17/14/7
f 8/15/8 17/14/8 18/16/8
f 9/18/9 18/102/9 10/19/9
f 10/1/10 19/31/10 20/21/10
f 20/21/11 21/23/11 12/22/11
f 21/23/12 22/24/12 13/6/12
f 22/24/13 23/35/13 14/25/13
f 23/26/14 24/37/14 15/27/14
f 15/27/15 24/37/15 25/28/15
f 25/28/16 26/29/16 17/14/16
f 26/29/17 27/30/17 18/16/17
f 27/30/18 19/31/18 10/1/18
f 19/31/19 28/41/19 29/32/19
f 29/32/20 30/33/20 21/23/20
f 30/33/21 31/34/21 22/24/21
f 31/34/22 32/45/22 23/35/22
f 32/36/23 33/47/23 24/37/23
f 24/37/24 33/47/24 34/38/24
f 34/38/25 35/50/25 26/29/25
f 26/29/26 35/50/26 36/39/26
f 36/39/27 28/41/27 19/31/27
f 37/40/28 38/42/28 29/32/28
f 38/42/29 39/43/29 30/33/29
f 39/43/30 40/44/30 31/34/30
f 40/44/31 41/103/31 32/45/31
f 41/46/32 42/48/32 33/47/32
f 42/48/33 43/104/33 34/38/33
f 34/38/34 43/104/34 44/49/34
f 44/49/35 45/51/35 36/39/35
f 45/51/36 37/40/36 28/41/36
f 46/52/37 47/55/37 38/53/37
f 47/55/38 48/57/38 39/56/38
f 48/57/39 49/73/39 40/58/39
f 40/58/40 49/73/40 50/59/40
f 50/61/41 51/64/41 42/62/41
f 51/64/42 52/66/42 43/65/42
f 52/66/43 53/68/43 44/67/43
f 53/68/44 54/70/44 45/69/44
f 54/70/45 46/52/45 37/54/45
f 46/52/46 55/79/46 56/71/46
f 56/71/47 57/72/47 48/57/47
f 57/72/48 58/74/48 49/73/48
f 58/74/49 59/83/49 50/59/49
f 59/75/50 60/76/50 51/64/50
f 60/76/51 61/86/51 52/66/51
f 52/66/52 61/86/52 62/77/52
f 62/77/53 63/78/53 54/70/53
f 63/78/54 55/79/54 46/52/54
f 55/79/55 64/90/55 65/80/55
f 56/71/56 65/80/56 66/81/56
f 57/72/57 66/81/57 67/82/57
f 67/82/58 68/94/58 59/83/58
f 68/84/59 69/85/59 60/76/59
f 69/85/60 70/97/60 61/86/60
f 61/86/61 70/97/61 71/87/61
f 71/87/62 72/88/62 63/78/62
f 72/88/63 64/90/63 55/79/63
f 73/89/64 74/91/64 65/80/64
f 74/91/65 75/92/65 66/81/65
f 75/92/66 76/101/66 67/82/66
f 67/82/67 76/101/67 77/93/67
f 77/95/68 78/96/68 69/85/68
f 78/96/69 79/98/69 70/97/69
f 79/98/70 80/99/70 71/87/70
f 80/99/71 81/100/71 72/88/71
f 81/100/72 73/89/72 64/90/72
f 1/3/73 2/2/73 74/91/73
f 2/2/74 3/5/74 75/92/74
f 3/5/75 4/7/75 76/101/75
f 4/7/76 5/8/76 77/93/76
f 5/11/77 6/10/77 78/96/77
f 6/10/78 7/13/78 79/98/78
f 7/13/79 8/15/79 80/99/79
f 8/15/80 9/17/80 81/100/80
f 9/17/81 1/3/81 73/89/81
